<!DOCTYPE svg PUBLIC "-//W3C//DTD SVG 1.1//EN" "http://www.w3.org/Graphics/SVG/1.1/DTD/svg11.dtd">
<!-- Uploaded to: SVG Repo, www.svgrepo.com, Transformed by: SVG Repo Mixer Tools -->
<svg height="800px" width="800px" version="1.1" id="Layer_1" xmlns="http://www.w3.org/2000/svg" xmlns:xlink="http://www.w3.org/1999/xlink" viewBox="0 0 512.001 512.001" xml:space="preserve" fill="#195876" stroke="#195876">
<g id="SVGRepo_bgCarrier" stroke-width="0"/>
<g id="SVGRepo_tracerCarrier" stroke-linecap="round" stroke-linejoin="round"/>
<g id="SVGRepo_iconCarrier"> <path style="fill:#236380;" d="M501.552,458.627c0,0-75.671-65.625-144.879-65.625c-71.084,0-162.013,65.625-162.013,65.625H501.552 z"/> <path style="fill:#236380;" d="M114.405,163.293h0.025c0.202-21.097,13.601-31.786,32.619-35.803 c-11.537-23.614-32.636-39.98-32.636-39.98s-21.099,16.366-32.634,39.978C100.799,131.505,114.202,142.192,114.405,163.293z"/> <g> <path style="fill:#236380;" d="M42.183,395.853c-28.711-42.265-31.732-90.277-31.732-90.277s43.517,20.509,72.229,62.774 c28.71,42.261,31.731,90.277,31.731,90.277S70.894,438.115,42.183,395.853z"/> <path style="fill:#236380;" d="M186.64,395.853c28.712-42.264,31.732-90.276,31.732-90.276s-43.518,20.509-72.229,62.774 c-28.71,42.261-31.731,90.277-31.731,90.277S157.931,438.115,186.64,395.853z"/> </g> <circle style="fill:#236380;" cx="389.748" cy="118.91" r="65.534"/> <g> <path style="fill:#236380;" d="M114.405,220.22h0.025c0.299-30.833,23.001-56.491,53.161-62.551v-32.114 c-29.2,0-52.892,9.63-53.161,37.738h-0.025c-0.27-28.109-23.965-37.739-53.159-37.739v32.115 C91.407,163.732,114.109,189.39,114.405,220.22z"/> <path style="fill:#236380;" d="M114.43,220.22h-0.025c-0.34-35.353-30.138-63.913-66.864-63.913l0.057,61.701 c0,34.604,30.661,62.294,66.814,62.294c36.164,0,66.875-27.767,66.875-62.294v-61.701 C144.567,156.307,114.772,184.867,114.43,220.22z"/> </g> <path d="M23.242,448.178H10.451c-5.77,0-10.449,4.678-10.449,10.449c0,5.77,4.678,10.449,10.449,10.449h12.792 c5.77,0,10.449-4.679,10.449-10.449C33.691,452.856,29.013,448.178,23.242,448.178z"/> <path d="M334.749,448.178h-12.792c-5.77,0-10.449,4.678-10.449,10.449c0,5.77,4.679,10.449,10.449,10.449h12.792 c5.77,0,10.449-4.679,10.449-10.449C345.198,452.856,340.519,448.178,334.749,448.178z"/> <path d="M508.398,450.733c-3.21-2.784-79.449-68.179-151.725-68.179c-67.366,0-149.016,54.291-165.327,65.625h-40.85 c14.331-10.872,31.084-26.281,44.786-46.454c29.973-44.121,33.388-93.415,33.518-95.492c0.232-3.687-1.502-7.223-4.558-9.3 c-3.055-2.074-6.982-2.382-10.325-0.808c-1.883,0.888-46.446,22.234-76.418,66.355c-4.887,7.194-9.064,14.524-12.64,21.767v-94.181 c16.323-2.107,31.536-9.117,43.637-20.285c14.986-13.83,23.238-32.217,23.238-51.774v-61.701c0-5.77-4.679-10.449-10.449-10.449 c-1.088,0-2.169,0.029-3.246,0.073v-20.377c0-5.771-4.679-10.449-10.449-10.449c-5.252,0-10.196,0.319-14.854,0.909 c-12.705-21.704-31.069-36.099-31.922-36.76c-3.769-2.925-9.038-2.925-12.808,0c-0.852,0.661-19.217,15.056-31.919,36.758 c-4.655-0.589-9.595-0.907-14.843-0.907c-5.77,0-10.449,4.678-10.449,10.449v20.377c-1.08-0.044-2.165-0.073-3.256-0.073 c-2.772,0-5.431,1.102-7.392,3.065c-1.96,1.961-3.061,4.622-3.057,7.394l0.057,61.692c0,36.772,29.138,67.24,66.814,72.059v94.198 c-3.579-7.249-7.748-14.586-12.64-21.787c-29.973-44.121-74.536-65.467-76.418-66.355c-3.342-1.575-7.267-1.267-10.325,0.808 c-3.057,2.076-4.79,5.612-4.558,9.3c0.131,2.076,3.546,51.371,33.518,95.492c13.703,20.173,30.456,35.582,44.786,46.454H58.769 c-5.77,0-10.449,4.678-10.449,10.449c0,5.77,4.679,10.449,10.449,10.449H286.43c5.771,0,10.449-4.679,10.449-10.449 c0-5.771-4.678-10.449-10.449-10.449h-56.111c31.759-18.763,83.453-44.727,126.354-44.727c41.661,0,86.851,26.105,113.786,44.727 H370.274c-5.77,0-10.449,4.678-10.449,10.449c0,5.77,4.679,10.449,10.449,10.449h131.278c4.361,0,8.264-2.709,9.79-6.795 C512.866,458.194,511.693,453.589,508.398,450.733z M154.786,374.221c15.376-22.634,35.51-38.783,49.88-48.437 c-3.66,16.876-11.241,41.484-26.669,64.196c-15.36,22.611-35.474,38.754-49.844,48.413 C131.835,421.477,139.429,396.831,154.786,374.221z M114.424,101.428c4.739,4.513,11.339,11.504,17.119,20.118 c-6.975,3.029-12.728,7.078-17.125,12.104c-4.398-5.026-10.151-9.075-17.125-12.104C103.067,112.962,109.68,105.954,114.424,101.428 z M71.695,136.478c32.033,3.118,32.203,20.75,32.261,26.915c0.055,5.731,4.743,10.349,10.474,10.349s10.394-4.617,10.449-10.349 c0.059-6.165,0.228-23.796,32.263-26.915v13.158c-18.082,5.812-33.274,17.944-42.725,33.685 c-9.451-15.74-24.643-27.872-42.724-33.683v-13.16H71.695z M58.047,217.999L58,167.694c25.891,4.702,45.705,26.512,45.956,52.625 c0.055,5.731,4.743,10.349,10.474,10.349s10.393-4.617,10.449-10.348c0.252-26.118,20.066-47.929,45.959-52.628v50.315 c0,28.102-25.84,51.845-56.426,51.845C83.332,269.853,58.047,246.595,58.047,217.999z M50.827,389.98 c-15.373-22.629-22.966-47.299-26.644-64.215c14.341,9.625,34.424,25.743,49.855,48.456c15.371,22.628,22.964,47.295,26.642,64.214 C86.338,428.811,66.256,412.693,50.827,389.98z"/> <path d="M389.744,194.892c41.897,0,75.983-34.086,75.983-75.983c0-41.898-34.086-75.984-75.983-75.984 c-41.898,0-75.984,34.086-75.984,75.984C313.761,160.806,347.847,194.892,389.744,194.892z M389.744,63.824 c30.373,0,55.085,24.711,55.085,55.086c0,30.373-24.711,55.085-55.085,55.085s-55.086-24.711-55.086-55.085 C334.659,88.535,359.37,63.824,389.744,63.824z"/> </g>
</svg>